<?xml version="1.0" encoding="us-ascii" standalone="no"?><svg xmlns="http://www.w3.org/2000/svg" xmlns:xlink="http://www.w3.org/1999/xlink" contentStyleType="text/css" height="274px" preserveAspectRatio="none" style="width:393px;height:274px;background:#FFFFFF;" version="1.1" viewBox="0 0 393 274" width="393px" zoomAndPan="magnify"><defs/><g><line style="stroke:#181818;stroke-width:0.5;stroke-dasharray:5.0,5.0;" x1="50" x2="50" y1="82.6094" y2="267.3672"/><line style="stroke:#181818;stroke-width:0.5;stroke-dasharray:5.0,5.0;" x1="126" x2="126" y1="82.6094" y2="267.3672"/><line style="stroke:#181818;stroke-width:0.5;stroke-dasharray:5.0,5.0;" x1="261.5" x2="261.5" y1="82.6094" y2="267.3672"/><text fill="#000000" font-family="sans-serif" font-size="14" lengthAdjust="spacing" textLength="84" x="5" y="79.5332">WiSpeed_DB</text><path d="M32,29 C32,19 50,19 50,19 C50,19 68,19 68,29 L68,55 C68,65 50,65 50,65 C50,65 32,65 32,55 L32,29 " fill="#E2E2F0" style="stroke:#181818;stroke-width:1.5;"/><path d="M32,29 C32,39 50,39 50,39 C50,39 68,39 68,29 " fill="none" style="stroke:#181818;stroke-width:1.5;"/><text fill="#000000" font-family="sans-serif" font-size="14" lengthAdjust="spacing" textLength="36" x="105" y="79.5332">Client</text><ellipse cx="126" cy="13.5" fill="#E2E2F0" rx="8" ry="8" style="stroke:#181818;stroke-width:0.5;"/><path d="M126,21.5 L126,48.5 M113,29.5 L139,29.5 M126,48.5 L113,63.5 M126,48.5 L139,63.5 " fill="none" style="stroke:#181818;stroke-width:0.5;"/><rect fill="#E2E2F0" height="31.6094" rx="2.5" ry="2.5" style="stroke:#181818;stroke-width:0.5;" width="61" x="231.5" y="50"/><text fill="#000000" font-family="sans-serif" font-size="14" lengthAdjust="spacing" textLength="47" x="238.5" y="71.5332">Service</text><polygon fill="#181818" points="250,110.9609,260,114.9609,250,118.9609" style="stroke:#181818;stroke-width:1.0;"/><line style="stroke:#181818;stroke-width:1.0;" x1="126" x2="256" y1="114.9609" y2="114.9609"/><text fill="#000000" font-family="sans-serif" font-size="13" font-weight="bold" lengthAdjust="spacing" textLength="7" x="133" y="110.1045">1</text><text fill="#000000" font-family="sans-serif" font-size="13" lengthAdjust="spacing" textLength="101" x="144" y="110.1045">Request readings</text><line style="stroke:#181818;stroke-width:1.0;" x1="262" x2="304" y1="145.3125" y2="145.3125"/><line style="stroke:#181818;stroke-width:1.0;" x1="304" x2="304" y1="145.3125" y2="158.3125"/><line style="stroke:#181818;stroke-width:1.0;" x1="263" x2="304" y1="158.3125" y2="158.3125"/><polygon fill="#181818" points="273,154.3125,263,158.3125,273,162.3125" style="stroke:#181818;stroke-width:1.0;"/><text fill="#000000" font-family="sans-serif" font-size="13" font-weight="bold" lengthAdjust="spacing" textLength="7" x="269" y="140.4561">2</text><text fill="#000000" font-family="sans-serif" font-size="13" lengthAdjust="spacing" textLength="106" x="280" y="140.4561">Perform command</text><polygon fill="#181818" points="61,184.6641,51,188.6641,61,192.6641" style="stroke:#181818;stroke-width:1.0;"/><line style="stroke:#181818;stroke-width:1.0;" x1="55" x2="261" y1="188.6641" y2="188.6641"/><text fill="#000000" font-family="sans-serif" font-size="13" font-weight="bold" lengthAdjust="spacing" textLength="7" x="67" y="183.8076">3</text><text fill="#000000" font-family="sans-serif" font-size="13" lengthAdjust="spacing" textLength="155" x="78" y="183.8076">Store readings in database</text><polygon fill="#181818" points="250,215.0156,260,219.0156,250,223.0156" style="stroke:#181818;stroke-width:1.0;"/><line style="stroke:#181818;stroke-width:1.0;" x1="50" x2="256" y1="219.0156" y2="219.0156"/><text fill="#000000" font-family="sans-serif" font-size="13" font-weight="bold" lengthAdjust="spacing" textLength="7" x="57" y="214.1592">4</text><text fill="#000000" font-family="sans-serif" font-size="13" lengthAdjust="spacing" textLength="59" x="68" y="214.1592">Read data</text><polygon fill="#181818" points="137,245.3672,127,249.3672,137,253.3672" style="stroke:#181818;stroke-width:1.0;"/><line style="stroke:#181818;stroke-width:1.0;" x1="131" x2="261" y1="249.3672" y2="249.3672"/><text fill="#000000" font-family="sans-serif" font-size="13" font-weight="bold" lengthAdjust="spacing" textLength="7" x="143" y="244.5107">5</text><text fill="#000000" font-family="sans-serif" font-size="13" lengthAdjust="spacing" textLength="96" x="154" y="244.5107">Display readings</text><!--SRC=[NOuz3i8m34RtdC8Nu08P6A07G7HWH6vYa4N-S1oatXv4eIrC7lpqleTDSsfn837rngcWO8HUnq1GLTXfYy5uL1om4fouBqJ-tEqCEiq2-y2Kr4m7DbleIHxioCAHxesgWX1wJjTgFfyVw41ooHB1vHWn-JMpJDbNJnQQJS09laLcmVxMqR-XjNAgjD1nBG77MVW4]--></g></svg>