<?xml version="1.0" encoding="UTF-8" standalone="no"?><svg xmlns="http://www.w3.org/2000/svg" xmlns:xlink="http://www.w3.org/1999/xlink" contentStyleType="text/css" height="244px" preserveAspectRatio="none" style="width:510px;height:244px;background:#FFFFFF;" version="1.1" viewBox="0 0 510 244" width="510px" zoomAndPan="magnify"><defs/><g><line style="stroke:#181818;stroke-width:0.5;stroke-dasharray:5.0,5.0;" x1="50" x2="50" y1="82.6094" y2="237.0156"/><line style="stroke:#181818;stroke-width:0.5;stroke-dasharray:5.0,5.0;" x1="243" x2="243" y1="82.6094" y2="237.0156"/><line style="stroke:#181818;stroke-width:0.5;stroke-dasharray:5.0,5.0;" x1="378.5" x2="378.5" y1="82.6094" y2="237.0156"/><text fill="#000000" font-family="sans-serif" font-size="14" lengthAdjust="spacing" textLength="84" x="5" y="79.5332">WiSpeed_DB</text><path d="M32,29 C32,19 50,19 50,19 C50,19 68,19 68,29 L68,55 C68,65 50,65 50,65 C50,65 32,65 32,55 L32,29 " fill="#E2E2F0" style="stroke:#181818;stroke-width:1.5;"/><path d="M32,29 C32,39 50,39 50,39 C50,39 68,39 68,29 " fill="none" style="stroke:#181818;stroke-width:1.5;"/><text fill="#000000" font-family="sans-serif" font-size="14" lengthAdjust="spacing" textLength="36" x="222" y="79.5332">Client</text><ellipse cx="243" cy="13.5" fill="#E2E2F0" rx="8" ry="8" style="stroke:#181818;stroke-width:0.5;"/><path d="M243,21.5 L243,48.5 M230,29.5 L256,29.5 M243,48.5 L230,63.5 M243,48.5 L256,63.5 " fill="none" style="stroke:#181818;stroke-width:0.5;"/><rect fill="#E2E2F0" height="31.6094" rx="2.5" ry="2.5" style="stroke:#181818;stroke-width:0.5;" width="61" x="348.5" y="50"/><text fill="#000000" font-family="sans-serif" font-size="14" lengthAdjust="spacing" textLength="47" x="355.5" y="71.5332">Service</text><polygon fill="#181818" points="367,110.9609,377,114.9609,367,118.9609" style="stroke:#181818;stroke-width:1.0;"/><line style="stroke:#181818;stroke-width:1.0;" x1="243" x2="373" y1="114.9609" y2="114.9609"/><text fill="#000000" font-family="sans-serif" font-size="13" font-weight="bold" lengthAdjust="spacing" textLength="7" x="250" y="110.1045">1</text><text fill="#000000" font-family="sans-serif" font-size="13" lengthAdjust="spacing" textLength="101" x="261" y="110.1045">Request readings</text><line style="stroke:#181818;stroke-width:1.0;" x1="379" x2="421" y1="145.3125" y2="145.3125"/><line style="stroke:#181818;stroke-width:1.0;" x1="421" x2="421" y1="145.3125" y2="158.3125"/><line style="stroke:#181818;stroke-width:1.0;" x1="380" x2="421" y1="158.3125" y2="158.3125"/><polygon fill="#181818" points="390,154.3125,380,158.3125,390,162.3125" style="stroke:#181818;stroke-width:1.0;"/><text fill="#000000" font-family="sans-serif" font-size="13" font-weight="bold" lengthAdjust="spacing" textLength="7" x="386" y="140.4561">2</text><text fill="#000000" font-family="sans-serif" font-size="13" lengthAdjust="spacing" textLength="106" x="397" y="140.4561">Perform command</text><polygon fill="#181818" points="61,184.6641,51,188.6641,61,192.6641" style="stroke:#181818;stroke-width:1.0;"/><line style="stroke:#181818;stroke-width:1.0;" x1="55" x2="378" y1="188.6641" y2="188.6641"/><text fill="#000000" font-family="sans-serif" font-size="13" font-weight="bold" lengthAdjust="spacing" textLength="7" x="67" y="183.8076">3</text><text fill="#000000" font-family="sans-serif" font-size="13" lengthAdjust="spacing" textLength="155" x="78" y="183.8076">Store readings in database</text><polygon fill="#181818" points="231,215.0156,241,219.0156,231,223.0156" style="stroke:#181818;stroke-width:1.0;"/><line style="stroke:#181818;stroke-width:1.0;" x1="50" x2="237" y1="219.0156" y2="219.0156"/><text fill="#000000" font-family="sans-serif" font-size="13" font-weight="bold" lengthAdjust="spacing" textLength="7" x="57" y="214.1592">4</text><text fill="#000000" font-family="sans-serif" font-size="13" lengthAdjust="spacing" textLength="158" x="68" y="214.1592">Display readings in website</text><!--MD5=[151cee1f77fc9f123e91a7f1c6f90699]
@startuml WiSpeed
autonumber
skinparam Style strictuml
database WiSpeed_DB
actor Client
Client -> Service: Request readings
Service -> Service: Perform command
Service -> WiSpeed_DB: Store readings in database
WiSpeed_DB -> Client: Display readings in website
@enduml

PlantUML version 1.2022.7(Mon Aug 22 12:01:30 CDT 2022)
(GPL source distribution)
Java Runtime: Java(TM) SE Runtime Environment
JVM: Java HotSpot(TM) 64-Bit Server VM
Default Encoding: Cp1252
Language: en
Country: US
--></g></svg>