<?xml version="1.0" encoding="UTF-8" standalone="no"?><svg xmlns="http://www.w3.org/2000/svg" xmlns:xlink="http://www.w3.org/1999/xlink" contentStyleType="text/css" height="230px" preserveAspectRatio="none" style="width:510px;height:230px;background:#FFFFFF;" version="1.1" viewBox="0 0 510 230" width="510px" zoomAndPan="magnify"><defs/><g><line style="stroke:#181818;stroke-width:0.5;stroke-dasharray:5.0,5.0;" x1="50" x2="50" y1="68.6094" y2="223.0156"/><line style="stroke:#181818;stroke-width:0.5;stroke-dasharray:5.0,5.0;" x1="243" x2="243" y1="68.6094" y2="223.0156"/><line style="stroke:#181818;stroke-width:0.5;stroke-dasharray:5.0,5.0;" x1="378.5" x2="378.5" y1="68.6094" y2="223.0156"/><text fill="#000000" font-family="sans-serif" font-size="14" lengthAdjust="spacing" textLength="84" x="5" y="65.5332">WiSpeed_DB</text><path d="M32,15 C32,5 50,5 50,5 C50,5 68,5 68,15 L68,41 C68,51 50,51 50,51 C50,51 32,51 32,41 L32,15 " fill="#E2E2F0" style="stroke:#181818;stroke-width:1.5;"/><path d="M32,15 C32,25 50,25 50,25 C50,25 68,25 68,15 " fill="none" style="stroke:#181818;stroke-width:1.5;"/><rect fill="#E2E2F0" height="31.6094" rx="2.5" ry="2.5" style="stroke:#181818;stroke-width:0.5;" width="50" x="218" y="36"/><text fill="#000000" font-family="sans-serif" font-size="14" lengthAdjust="spacing" textLength="36" x="225" y="57.5332">Client</text><rect fill="#E2E2F0" height="31.6094" rx="2.5" ry="2.5" style="stroke:#181818;stroke-width:0.5;" width="61" x="348.5" y="36"/><text fill="#000000" font-family="sans-serif" font-size="14" lengthAdjust="spacing" textLength="47" x="355.5" y="57.5332">Service</text><polygon fill="#181818" points="367,96.9609,377,100.9609,367,104.9609" style="stroke:#181818;stroke-width:1.0;"/><line style="stroke:#181818;stroke-width:1.0;" x1="243" x2="373" y1="100.9609" y2="100.9609"/><text fill="#000000" font-family="sans-serif" font-size="13" font-weight="bold" lengthAdjust="spacing" textLength="7" x="250" y="96.1045">1</text><text fill="#000000" font-family="sans-serif" font-size="13" lengthAdjust="spacing" textLength="101" x="261" y="96.1045">Request readings</text><line style="stroke:#181818;stroke-width:1.0;" x1="379" x2="421" y1="131.3125" y2="131.3125"/><line style="stroke:#181818;stroke-width:1.0;" x1="421" x2="421" y1="131.3125" y2="144.3125"/><line style="stroke:#181818;stroke-width:1.0;" x1="380" x2="421" y1="144.3125" y2="144.3125"/><polygon fill="#181818" points="390,140.3125,380,144.3125,390,148.3125" style="stroke:#181818;stroke-width:1.0;"/><text fill="#000000" font-family="sans-serif" font-size="13" font-weight="bold" lengthAdjust="spacing" textLength="7" x="386" y="126.4561">2</text><text fill="#000000" font-family="sans-serif" font-size="13" lengthAdjust="spacing" textLength="106" x="397" y="126.4561">Perform command</text><polygon fill="#181818" points="61,170.6641,51,174.6641,61,178.6641" style="stroke:#181818;stroke-width:1.0;"/><line style="stroke:#181818;stroke-width:1.0;" x1="55" x2="378" y1="174.6641" y2="174.6641"/><text fill="#000000" font-family="sans-serif" font-size="13" font-weight="bold" lengthAdjust="spacing" textLength="7" x="67" y="169.8076">3</text><text fill="#000000" font-family="sans-serif" font-size="13" lengthAdjust="spacing" textLength="155" x="78" y="169.8076">Store readings in database</text><polygon fill="#181818" points="231,201.0156,241,205.0156,231,209.0156" style="stroke:#181818;stroke-width:1.0;"/><line style="stroke:#181818;stroke-width:1.0;" x1="50" x2="237" y1="205.0156" y2="205.0156"/><text fill="#000000" font-family="sans-serif" font-size="13" font-weight="bold" lengthAdjust="spacing" textLength="7" x="57" y="200.1592">4</text><text fill="#000000" font-family="sans-serif" font-size="13" lengthAdjust="spacing" textLength="158" x="68" y="200.1592">Display readings in website</text><!--MD5=[ed4e5081fd3c8fbfe128e832da4c63b5]
@startuml WiSpeed
autonumber
skinparam Style strictuml
database WiSpeed_DB
Client -> Service: Request readings
Service -> Service: Perform command
Service -> WiSpeed_DB: Store readings in database
WiSpeed_DB -> Client: Display readings in website
@enduml

PlantUML version 1.2022.7(Mon Aug 22 12:01:30 CDT 2022)
(GPL source distribution)
Java Runtime: Java(TM) SE Runtime Environment
JVM: Java HotSpot(TM) 64-Bit Server VM
Default Encoding: Cp1252
Language: en
Country: US
--></g></svg>